<svg id="Capa_1" data-name="Capa 1" xmlns="http://www.w3.org/2000/svg" viewBox="0 0 515.54 153.36"><defs><style>.cls-1{fill:#6e5128;}.cls-2,.cls-3{fill:#c77d06;}.cls-3{fill-rule:evenodd;}.cls-4{fill:#9a7536;}.cls-5{fill:#c6a00e;}</style></defs><title>logo-salaverry</title><path class="cls-1" d="M222.42,129.14l2.07-9.73h-4.33l.39-1.81h11.09l-.39,1.81h-4.33l-2.07,9.73Z" transform="translate(-5.15 -14.24)"/><path class="cls-1" d="M231.83,129.14l2.46-11.54h10l-.39,1.81h-7.6l-.61,2.91H243l-.39,1.81h-7.29l-.68,3.2h7.73l-.39,1.81Z" transform="translate(-5.15 -14.24)"/><path class="cls-1" d="M245.28,129.14l2.43-11.54H255c2.22,0,3.34.76,3.34,2.28a4.46,4.46,0,0,1-.1.86,3.43,3.43,0,0,1-2.51,2.78v0a1.51,1.51,0,0,1,1.2,1.7,7.11,7.11,0,0,1-.18,1.42,7.89,7.89,0,0,0-.21,1.59,1.89,1.89,0,0,0,.16.88h-2.62a3.57,3.57,0,0,1,.09-1.74,7.47,7.47,0,0,0,.19-1.39c0-1-.53-1.42-1.6-1.42h-4.12l-1,4.55Zm3.78-6.37h4.19a3,3,0,0,0,1.64-.37,2,2,0,0,0,.79-1.32,2.45,2.45,0,0,0,0-.46c0-.8-.58-1.21-1.76-1.21h-4.18Z" transform="translate(-5.15 -14.24)"/><path class="cls-1" d="M259.93,129.14l2.45-11.54h3.5l2.13,9,5.92-9h3.46l-2.46,11.54h-2.28l2.12-9.53h0l-6.29,9.53h-2.07l-2.22-9.53h0l-1.92,9.53Z" transform="translate(-5.15 -14.24)"/><path class="cls-1" d="M278.76,129.14l2.43-11.54h2.45l-2.45,11.54Z" transform="translate(-5.15 -14.24)"/><path class="cls-1" d="M285,129.14l2.46-11.54h2.78l5,8.67h0l1.84-8.67h2.33L297,129.14H294.3l-5.08-8.66h0l-1.84,8.66Z" transform="translate(-5.15 -14.24)"/><path class="cls-1" d="M299.54,129.14l7.59-11.54H310l2.69,11.54H310l-.6-2.86H304l-1.81,2.86Zm5.53-4.67h4l-.94-4.86Z" transform="translate(-5.15 -14.24)"/><path class="cls-1" d="M315.2,129.14l2.46-11.54h2.42L318,127.24h7l-.41,1.9Z" transform="translate(-5.15 -14.24)"/><path class="cls-1" d="M334.62,129.14,337,117.6h2.46L337,129.14Z" transform="translate(-5.15 -14.24)"/><path class="cls-1" d="M340.87,129.14l2.46-11.54h2.78l5,8.67h0L353,117.6h2.33l-2.45,11.54h-2.74l-5.07-8.66h0l-1.84,8.66Z" transform="translate(-5.15 -14.24)"/><path class="cls-1" d="M359.87,129.14l2.07-9.73h-4.33l.38-1.81h11.09l-.38,1.81h-4.34l-2.07,9.73Z" transform="translate(-5.15 -14.24)"/><path class="cls-1" d="M369.28,129.14l2.46-11.54h10l-.39,1.81h-7.6l-.61,2.91h7.29l-.39,1.81h-7.29l-.68,3.2h7.73l-.39,1.81Z" transform="translate(-5.15 -14.24)"/><path class="cls-1" d="M382.73,129.14l2.42-11.54h7.33c2.23,0,3.34.76,3.34,2.28a4.41,4.41,0,0,1-.09.86,3.45,3.45,0,0,1-2.51,2.78v0a1.51,1.51,0,0,1,1.2,1.7,7.11,7.11,0,0,1-.18,1.42,7.89,7.89,0,0,0-.21,1.59,1.89,1.89,0,0,0,.16.88h-2.62a3.66,3.66,0,0,1,.08-1.74,6.84,6.84,0,0,0,.2-1.39c0-1-.54-1.42-1.6-1.42h-4.13l-1,4.55Zm3.78-6.37h4.19a3,3,0,0,0,1.64-.37,2,2,0,0,0,.78-1.32,1.85,1.85,0,0,0,.05-.46c0-.8-.59-1.21-1.76-1.21h-4.19Z" transform="translate(-5.15 -14.24)"/><path class="cls-1" d="M397.38,129.14l2.45-11.54h2.78l5,8.67h0l1.85-8.67h2.32l-2.45,11.54h-2.73l-5.08-8.66h0l-1.85,8.66Z" transform="translate(-5.15 -14.24)"/><path class="cls-1" d="M411.89,129.14l7.6-11.54h2.88l2.68,11.54h-2.7l-.6-2.86h-5.43l-1.81,2.86Zm5.53-4.67h4l-.94-4.86Z" transform="translate(-5.15 -14.24)"/><path class="cls-1" d="M441.22,121.87H438.6a2.33,2.33,0,0,0-.75-2,3.54,3.54,0,0,0-2.39-.74,4.46,4.46,0,0,0-3,1.11,6.14,6.14,0,0,0-1.83,3.38,5.11,5.11,0,0,0-.11,1,2.94,2.94,0,0,0,.89,2.23,3.38,3.38,0,0,0,2.42.84,4.28,4.28,0,0,0,2.87-1,4.7,4.7,0,0,0,1.31-1.92h2.61q-1.71,4.74-7.59,4.74a5.2,5.2,0,0,1-3.84-1.33,4.36,4.36,0,0,1-1.21-3.23,6.94,6.94,0,0,1,.18-1.54,7.69,7.69,0,0,1,2.43-4.27,7.83,7.83,0,0,1,5.31-1.82,6.14,6.14,0,0,1,4.06,1.19,3.6,3.6,0,0,1,1.3,2.88C441.24,121.52,441.23,121.7,441.22,121.87Z" transform="translate(-5.15 -14.24)"/><path class="cls-1" d="M443.09,129.14l2.43-11.54H448l-2.46,11.54Z" transform="translate(-5.15 -14.24)"/><path class="cls-1" d="M455.43,129.47a6.38,6.38,0,0,1-4.37-1.31,4.17,4.17,0,0,1-1.31-3.25,7.08,7.08,0,0,1,.18-1.54,7.47,7.47,0,0,1,2.48-4.27,8.43,8.43,0,0,1,5.61-1.82,6.3,6.3,0,0,1,4.36,1.31,4.15,4.15,0,0,1,1.31,3.25,7.06,7.06,0,0,1-.18,1.53,7.47,7.47,0,0,1-2.47,4.27A8.42,8.42,0,0,1,455.43,129.47Zm.39-1.81a5.06,5.06,0,0,0,3.39-1.2,5.35,5.35,0,0,0,1.78-3.09,5.18,5.18,0,0,0,.13-1.14,3,3,0,0,0-.91-2.3,3.64,3.64,0,0,0-2.58-.84,5.06,5.06,0,0,0-3.39,1.17,5.4,5.4,0,0,0-1.79,3.11,5.84,5.84,0,0,0-.12,1.15,3,3,0,0,0,.89,2.3A3.68,3.68,0,0,0,455.82,127.66Z" transform="translate(-5.15 -14.24)"/><path class="cls-1" d="M465.47,129.14l2.45-11.54h2.79l5,8.67h0l1.84-8.67h2.33l-2.46,11.54h-2.73l-5.08-8.66h0l-1.85,8.66Z" transform="translate(-5.15 -14.24)"/><path class="cls-1" d="M480,129.14l7.59-11.54h2.88l2.68,11.54h-2.69l-.6-2.86h-5.43l-1.82,2.86Zm5.52-4.67h4l-.94-4.86Z" transform="translate(-5.15 -14.24)"/><path class="cls-1" d="M495.65,129.14l2.46-11.54h2.42l-2,9.64h7l-.41,1.9Z" transform="translate(-5.15 -14.24)"/><path class="cls-2" d="M242.92,81.67l.36-1.75a5.18,5.18,0,0,0,.13-1.14c0-1.56-.73-2.34-2.2-2.34a3.16,3.16,0,0,0-2.65,1.35,4.86,4.86,0,0,0-1,3c0,1.72,1.25,3.18,3.77,4.39q6.64,3.18,6.95,3.42a8.42,8.42,0,0,1,3.78,7.28,14.26,14.26,0,0,1-.43,3.31q-1.57,7.45-6,10.7t-12.92,3.25c-4.06,0-7.07-.63-9-1.87-2.15-1.36-3.23-3.57-3.23-6.61a18.92,18.92,0,0,1,.49-4.09l.24-1.14H233l-.42,2a7,7,0,0,0-.12,1.26c0,1.69.79,2.53,2.37,2.53a3.49,3.49,0,0,0,3.05-1.81,6.25,6.25,0,0,0,1-3.48A3.37,3.37,0,0,0,237,97.12q-1.77-.9-5.43-2.85a16.87,16.87,0,0,1-5.06-3.7,6.77,6.77,0,0,1-1.64-4.63,16.11,16.11,0,0,1,.49-3.61q1.69-7.93,7-11.18a19.81,19.81,0,0,1,10.55-2.65Q255,68.5,255,77a22.26,22.26,0,0,1-.61,4.69Z" transform="translate(-5.15 -14.24)"/><path class="cls-2" d="M272.84,112.27l.06-6.55h-8.16l-2.62,6.55H249.56l19.56-42.93h15.3l1,42.93Zm.73-15.93,1.22-17.62h-.12L268,96.34Z" transform="translate(-5.15 -14.24)"/><path class="cls-2" d="M287.34,112.27l9.27-42.93H308.8l-7.19,33.19h13.28l-2.07,9.74Z" transform="translate(-5.15 -14.24)"/><path class="cls-2" d="M336,112.27l.06-6.55h-8.17l-2.62,6.55H312.76l19.56-42.93h15.3l1,42.93Zm.73-15.93L338,78.72h-.12l-6.65,17.62Z" transform="translate(-5.15 -14.24)"/><path class="cls-2" d="M364.56,102.53l11.15-33.19h12.86l-18.46,42.93H354.38l.12-42.93h13.17l-3.23,33.19Z" transform="translate(-5.15 -14.24)"/><path class="cls-2" d="M381,112.27l9.27-42.93h26.2l-2.13,9.74h-14l-1.4,6.62H412l-2,9.38h-13.1l-1.64,7.45h14.56l-2.07,9.74Z" transform="translate(-5.15 -14.24)"/><path class="cls-2" d="M411.49,112.27l9.26-42.93H439q10,0,10,7.76a16.65,16.65,0,0,1-.43,3.49q-2,9.31-9.51,10.34v.12q5.37.42,5.37,5.59a27.13,27.13,0,0,1-.74,5.17l-.79,3.55c-.57,2.64-.73,4.33-.48,5a1.84,1.84,0,0,0,1,1.26l-.12.6H430.38a3.08,3.08,0,0,1-.25-1.44,24.74,24.74,0,0,1,.68-4.75c.16-.68.36-1.73.6-3.16s.45-2.51.61-3.27a9.29,9.29,0,0,0,.25-2c0-1.52-.9-2.28-2.68-2.28h-2.26l-3.66,16.89ZM431.05,78l-2,9.44h1.77c2.76,0,4.5-1.68,5.24-5a8.11,8.11,0,0,0,.18-1.56q0-2.83-3.78-2.83Z" transform="translate(-5.15 -14.24)"/><path class="cls-2" d="M446.47,112.27l9.26-42.93H474q10,0,10,7.76a16,16,0,0,1-.43,3.49q-2,9.31-9.51,10.34v.12q5.37.42,5.37,5.59a27.76,27.76,0,0,1-.73,5.17l-.8,3.55c-.57,2.64-.73,4.33-.48,5a1.84,1.84,0,0,0,1,1.26l-.12.6H465.36a3.11,3.11,0,0,1-.24-1.44,24.55,24.55,0,0,1,.67-4.75c.16-.68.36-1.73.61-3.16s.44-2.51.6-3.27a9.29,9.29,0,0,0,.25-2c0-1.52-.9-2.28-2.68-2.28h-2.26l-3.65,16.89ZM466,78l-2,9.44h1.77q4.14,0,5.24-5a8.11,8.11,0,0,0,.18-1.56q0-2.83-3.78-2.83Z" transform="translate(-5.15 -14.24)"/><path class="cls-2" d="M507.47,69.34H520.7l-16.58,26-3.66,16.89H488.27l3.66-16.89-5.36-26h13.65l.24,15Z" transform="translate(-5.15 -14.24)"/><path class="cls-1" d="M70.42,121.28a53,53,0,0,1-3.17-8,57,57,0,0,1-1.9-8.37,61.41,61.41,0,0,1-.56-8.58,61.34,61.34,0,0,1,.78-8.56,56.62,56.62,0,0,1,2.1-8.32,52.66,52.66,0,0,1,3.38-7.88,52.09,52.09,0,0,1,4.57-7.26,54.41,54.41,0,0,1,88.24,1.12,55.19,55.19,0,0,1,7.56,15.34,56.93,56.93,0,0,1,1.89,8.37,55.56,55.56,0,0,1-.21,17.14,56.52,56.52,0,0,1-2.11,8.31,51.18,51.18,0,0,1-3.37,7.88c-.61,1.15-1.25,2.28-1.93,3.38l2.82.5q1.32-2.23,2.45-4.56l4.82,2.31.57-1.23c.2-.41.39-.82.55-1.24L172,119.56l.76-1.86c.25-.63.45-1.27.68-1.9l.34-1,.28-1c.19-.65.4-1.29.57-1.94.31-1.31.67-2.61.89-3.94s.44-2.66.63-4l5.31.64c.12-.89.17-1.8.26-2.7l-5.33-.42c0-.31.06-.62.07-.93l0-.94.07-1.87a58.53,58.53,0,0,0-.94-11.14l5.26-1c-.15-.89-.37-1.77-.56-2.66l-5.21,1.2a54.51,54.51,0,0,0-2.34-7.72c-.24-.63-.47-1.26-.75-1.87l-.81-1.85c-.61-1.2-1.17-2.43-1.85-3.59L174,66.58l-.66-1.19c-.22-.39-.47-.77-.71-1.16L168.1,67c-.33-.52-.65-1.06-1-1.58L166,63.92a57,57,0,0,0-7.29-8.45l3.69-3.89q-.48-.48-1-.93l-1-.9-3.51,4a56.15,56.15,0,0,0-6.42-4.87l-.84-.55-.87-.52c-.58-.34-1.15-.69-1.74-1-1.19-.62-2.36-1.28-3.59-1.82l2.26-4.86-1.23-.58-1.25-.52-2.05,5c-.57-.23-1.14-.49-1.73-.7l-1.76-.62a56.54,56.54,0,0,0-10.84-2.53l.7-5.31c-.89-.15-1.79-.22-2.69-.3l-.47,5.35a57.57,57.57,0,0,0-16.05.81l-1-5.26-2.65.57,1.25,5.22c-.6.14-1.2.32-1.8.48s-1.2.31-1.79.52a56.71,56.71,0,0,0-10.25,4.34l-2.55-4.71c-.79.45-1.59.86-2.36,1.34l2.75,4.6a60.46,60.46,0,0,0-6.59,4.63A62.64,62.64,0,0,0,77.45,58L73.53,54.3l-1.8,2,4.07,3.48c-.41.47-.79,1-1.18,1.45s-.79,1-1.15,1.48a57.65,57.65,0,0,0-5.76,9.56L62.89,70l-.58,1.23c-.19.41-.38.83-.54,1.25l4.91,2.1-.76,1.87c-.24.63-.45,1.27-.68,1.9l-.33,1-.29,1c-.18.65-.39,1.29-.56,1.94-.31,1.31-.67,2.61-.89,3.94s-.45,2.65-.63,4l-5.31-.65c-.12.9-.17,1.81-.26,2.71l5.33.41c0,.31-.06.62-.08.94l0,.93-.07,1.88a58.53,58.53,0,0,0,.94,11.14l-5.26,1c.14.9.37,1.78.55,2.66l5.21-1.19a55,55,0,0,0,2.35,7.72c.23.63.47,1.26.75,1.87l.81,1.85c.61,1.2,1.16,2.43,1.85,3.59l-4.67,2.61.33.6q4.13-.91,8.35-1.69A55.86,55.86,0,0,1,70.42,121.28Z" transform="translate(-5.15 -14.24)"/><path class="cls-1" d="M57.34,124.88l4.88-2.19-.54-1.25c-.19-.41-.36-.83-.52-1.26l-5,2-.85-2.24c-.27-.75-.5-1.52-.75-2.28l-.37-1.14-.31-1.16c-.2-.77-.43-1.54-.61-2.32-.34-1.56-.71-3.12-.94-4.7s-.45-3.17-.63-4.76l5.33-.5c-.1-.9-.13-1.81-.19-2.71l-5.34.27c-.06-.73-.07-1.47-.08-2.21l0-2.21A68.92,68.92,0,0,1,52.88,83l5.23,1.1c.17-.89.42-1.76.62-2.65l-5.18-1.33a65.88,65.88,0,0,1,3-9.09L57,69.93c.16-.37.34-.73.5-1.09l1-2.17c.75-1.42,1.46-2.85,2.3-4.21l4.6,2.73L66.13,64c.23-.39.5-.76.74-1.14L62.39,60c.4-.61.8-1.23,1.22-1.84l1.3-1.79a67.94,67.94,0,0,1,8.91-9.81l3.58,4q.5-.47,1-.9l1-.87L76,44.58A67.77,67.77,0,0,1,83.8,39l1-.63,1-.59c.7-.38,1.39-.79,2.1-1.15,1.42-.71,2.84-1.45,4.31-2.06l2.14,4.92L95.65,39l1.27-.49-1.92-5c.69-.25,1.37-.53,2.07-.77l2.1-.68a66.76,66.76,0,0,1,13-2.68l.56,5.34c.9-.12,1.8-.17,2.7-.23l-.33-5.35a68.46,68.46,0,0,1,19,1.46l-1.15,5.24,2.63.64,1.38-5.18c.71.19,1.42.41,2.12.62s1.41.41,2.1.67A67.59,67.59,0,0,1,153.2,38l-2.67,4.65c.77.47,1.56.91,2.32,1.41l2.86-4.53a71.36,71.36,0,0,1,7.69,5.69,74.37,74.37,0,0,1,6.81,6.71l-4,3.56L168,57.57l4.16-3.38c.47.57.9,1.16,1.35,1.74s.9,1.17,1.31,1.79a68.31,68.31,0,0,1,6.56,11.53l-4.88,2.19.54,1.25c.19.41.36.83.51,1.25l5-2,.84,2.24c.27.75.51,1.52.76,2.28l.36,1.14.32,1.16c.2.77.42,1.54.61,2.32.33,1.56.71,3.12.94,4.7s.44,3.16.62,4.75l-5.32.51c.09.9.12,1.81.19,2.71l5.34-.27c.06.73.07,1.47.08,2.2l0,2.21a68.93,68.93,0,0,1-1.45,13.2l-5.24-1.1c-.16.89-.41,1.76-.62,2.64l5.19,1.33a67.38,67.38,0,0,1-3,9.1l-.46,1.11c-.15.37-.33.73-.49,1.09l-1,2.17-.63,1.2,2.69.64.33-.64,1.06-2.26c.17-.37.36-.75.52-1.13l.47-1.15a69,69,0,0,0,3.14-9.46c.23-1,.51-2,.7-3A72.67,72.67,0,0,0,189.92,98l0-2.3c0-.76,0-1.53-.08-2.29-.07-1-.11-2-.21-3.06-.19-1.65-.35-3.3-.66-4.94s-.62-3.27-1-4.89c-.19-.81-.42-1.61-.64-2.41L187,76.86l-.38-1.18c-.26-.79-.5-1.59-.78-2.37L185,71c-.17-.49-.37-1-.58-1.42l-.61-1.41a71.29,71.29,0,0,0-6.82-12c-.43-.63-.89-1.24-1.36-1.85s-.92-1.22-1.4-1.81l-2-2.35a78.94,78.94,0,0,0-7.08-7,75.68,75.68,0,0,0-8-5.92c-.85-.56-1.74-1-2.62-1.58A70.11,70.11,0,0,0,142,30c-.71-.27-1.45-.48-2.18-.7s-1.47-.45-2.21-.65l-3-.72A70.76,70.76,0,0,0,114.9,26.4c-1,.06-2,.12-3.05.25a69.87,69.87,0,0,0-13.48,2.78l-2.18.71c-.73.25-1.43.54-2.15.81l-1.43.55-1.4.61c-1.53.64-3,1.4-4.49,2.14-.74.38-1.45.8-2.18,1.2l-1.08.61-1.06.66a68.34,68.34,0,0,0-8.07,5.8l-1.16,1c-.39.33-.78.67-1.15,1a71,71,0,0,0-9.25,10.2l-1.35,1.85c-.44.63-.85,1.28-1.28,1.92-.27.43-.56.85-.83,1.29l-.78,1.32c-.87,1.41-1.61,2.9-2.38,4.37l-1.06,2.25c-.17.38-.36.75-.52,1.14L54.1,70A68.1,68.1,0,0,0,51,79.47c-.23,1-.51,2-.7,3a71.06,71.06,0,0,0-1.51,13.71l0,2.29c0,.77,0,1.53.07,2.3.08,1,.11,2,.22,3.06.18,1.65.35,3.3.65,4.94s.63,3.26,1,4.89c.19.81.42,1.61.63,2.41l.33,1.2.38,1.19c.26.79.5,1.59.78,2.37l.88,2.33c.18.48.38.95.58,1.42L54.9,126c.62,1.39,1.3,2.75,2,4.1l2.68-.67C58.79,127.92,58,126.42,57.34,124.88Z" transform="translate(-5.15 -14.24)"/><path class="cls-1" d="M157.4,42.26c-.39-.28-.8-.54-1.2-.8l-3,4.46c-1.47-1-3-1.9-4.54-2.76l2.57-4.71a64,64,0,0,0-10.55-4.65l-.3-.11h0c-.81-.29-1.65-.51-2.47-.77l-1.49,5.16c-.42-.12-.84-.27-1.27-.37l-1.29-.32-1.29-.31c-.43-.11-.87-.18-1.3-.26l1-5.27A63.91,63.91,0,0,0,120.9,30.3l-.18,8c.84,0,1.69.06,2.53.11l.36-5.36,2.75.25c.92.1,1.83.25,2.75.37l-.82,5.3a60.39,60.39,0,0,1,9.84,2.41h0c.79.29,1.6.54,2.38.86l1.94-5L145,38.34l2.51,1.18-2.37,4.81a59.79,59.79,0,0,1,8.66,5.28l4.74-6.5Z" transform="translate(-5.15 -14.24)"/><path class="cls-1" d="M183.46,115.06l-5.16-1.44c.46-1.72.89-3.44,1.19-5.19l5.26,1a69.28,69.28,0,0,0,1.16-11.49v0h0l0-2.89-5.35.16c0-.89-.1-1.77-.14-2.66s-.15-1.77-.25-2.65l5.31-.62a67.54,67.54,0,0,0-2.3-11.33l-7.69,2.31.66,2.45,5.19-1.31c.43,1.8.84,3.61,1.11,5.44l-5.28.85a61.53,61.53,0,0,1,.75,10.15h0l-.09,2.55,5.34.3c0,.92-.15,1.84-.22,2.76s-.21,1.84-.34,2.76l-5.29-.76a59.72,59.72,0,0,1-2.28,9.9l7.63,2.5Z" transform="translate(-5.15 -14.24)"/><path class="cls-1" d="M116.8,35.69l-2.65.17c-.88.07-1.75.19-2.63.28l-.68-5.32a66.7,66.7,0,0,0-11.26,2.45h0c-.91.3-1.83.57-2.74.91l1.81,5.05-2.47.95-2.43,1.06-2.24-4.87a67.41,67.41,0,0,0-10,5.74l4.56,6.62,1-.72c.35-.24.71-.46,1.07-.68L85.32,42.8c.78-.49,1.55-1,2.37-1.43l1.21-.68c.4-.23.8-.45,1.22-.65l2.45,4.77A55.77,55.77,0,0,1,101.94,41h0c.8-.29,1.62-.47,2.43-.7L103,35.07c.45-.12.89-.25,1.34-.35l1.36-.3,1.35-.29c.45-.09.91-.16,1.36-.24l.91,5.29a56.91,56.91,0,0,1,10.1-.85v-8c-1,0-1.92,0-2.88,0Z" transform="translate(-5.15 -14.24)"/><path class="cls-1" d="M55.21,79.07l5.15,1.44c-.45,1.71-.88,3.43-1.19,5.18l-5.26-1a70.58,70.58,0,0,0-1.15,11.5v0h0v.39h0l0,2.49L58.14,99c0,.89.1,1.77.15,2.66s.15,1.76.25,2.64l-5.32.63a68.25,68.25,0,0,0,2.31,11.32l7.69-2.3-.67-2.45-5.18,1.31c-.43-1.8-.84-3.61-1.11-5.45l5.28-.85a62.52,62.52,0,0,1-.76-10.14h0v0l.1-2.54-5.34-.3c0-.92.15-1.84.22-2.77s.21-1.84.33-2.75l5.3.76a60.07,60.07,0,0,1,2.28-9.91L56,76.29Z" transform="translate(-5.15 -14.24)"/><path class="cls-1" d="M78,44.7l3.32,4.21c-1.37,1.11-2.73,2.25-4,3.48l-3.67-3.9A66.76,66.76,0,0,0,66,57.11h0c-.56.79-1.16,1.55-1.68,2.36l4.42,3c-.48.74-1,1.48-1.45,2.23L65.92,67l-4.67-2.63a67.74,67.74,0,0,0-4.73,10.54l7.57,2.67.42-1.2c.14-.41.31-.79.47-1.19l-5-2c.68-1.73,1.46-3.41,2.28-5.07l4.77,2.43a56.49,56.49,0,0,1,5.35-8.64h0c.49-.7,1-1.34,1.57-2l-4.14-3.4c.29-.36.57-.73.88-1.07l.91-1,.92-1,1-1,3.84,3.74A59.09,59.09,0,0,1,85,49.47L80.3,43C79.53,43.52,78.77,44.11,78,44.7Z" transform="translate(-5.15 -14.24)"/><path class="cls-1" d="M62.8,127l4.73-2.51a60,60,0,0,1-3.92-9.37L56,117.58c.29.92.58,1.84.94,2.73l5-1.86c.61,1.66,1.32,3.29,2.06,4.9l-4.84,2.3c.55,1.17,1.14,2.31,1.76,3.44.9-.22,1.8-.43,2.71-.63Z" transform="translate(-5.15 -14.24)"/><path class="cls-1" d="M172.75,127.11l.24.14c1.74.35,3.45.72,5.16,1.1a67.6,67.6,0,0,0,4-9.15l-7.57-2.67-.42,1.2c-.14.4-.32.79-.47,1.18l5,2c-.67,1.72-1.45,3.4-2.27,5.06l-4.77-2.42c-.53,1-1.1,2.08-1.7,3.1.94.18,1.87.35,2.79.54Z" transform="translate(-5.15 -14.24)"/><path class="cls-1" d="M181.75,73.81l-5,1.87c-.6-1.67-1.31-3.29-2-4.9l4.83-2.3a64.42,64.42,0,0,0-5.82-10l-.19-.28h0c-.49-.7-1-1.38-1.53-2.06l-4.23,3.29c-.27-.35-.53-.71-.81-1.05l-.86-1-.86-1-.9-1,3.93-3.64a66,66,0,0,0-8.5-7.79l-4.87,6.39,2,1.59,3.42-4.12c1.41,1.2,2.79,2.43,4.09,3.75l-3.77,3.81a59.81,59.81,0,0,1,6.55,7.75h0v0c.47.7,1,1.38,1.43,2.1l4.49-2.91c.48.79,1,1.57,1.45,2.37l1.35,2.42-4.73,2.51A58.74,58.74,0,0,1,175.06,79l7.63-2.47C182.4,75.63,182.11,74.71,181.75,73.81Z" transform="translate(-5.15 -14.24)"/><polygon class="cls-1" points="123.11 54.99 123.11 67.04 137.53 67.04 121.2 108.53 135.07 108.53 156.47 54.99 123.11 54.99"/><path class="cls-2" d="M72.5,108H87a5.17,5.17,0,0,0,.93,2.77,4.73,4.73,0,0,0,4,1.87,5.65,5.65,0,0,0,3.62-1.21,3.92,3.92,0,0,0,1.52-3.16,4.68,4.68,0,0,0-2-3.94,27.42,27.42,0,0,0-4.94-2.41q-8.85-3.7-11.7-6.4A13,13,0,0,1,74,85.61a16.54,16.54,0,0,1,1.32-6.51A15.2,15.2,0,0,1,79,73.83q5.07-4.6,14.68-4.6h10.13v12H93.53a7.22,7.22,0,0,0-3.74.74,3.35,3.35,0,0,0-1.73,3,3.64,3.64,0,0,0,1.81,3,33.61,33.61,0,0,0,6,2.93,60.53,60.53,0,0,1,6.87,3.16,17.28,17.28,0,0,1,6.2,6.55,13.39,13.39,0,0,1,1.44,3.9V81.28H99.84v-12h33.5v12h-8.85v41.49H110.41V111.5a18,18,0,0,1-5.42,7.8q-5.64,4.52-14.4,4.52-9.74,0-15.12-6.82A14.61,14.61,0,0,1,72.5,108Z" transform="translate(-5.15 -14.24)"/><rect class="cls-2" x="128.15" y="39.66" width="12.64" height="12.7"/><path class="cls-3" d="M233.81,150.47c-28.58-17.15-68.52-29.86-112.74-29.86S33.73,133.32,5.15,150.47c14.68-7.15,35.06-12.91,53.68-16.93a69.49,69.49,0,0,0,6.48,9,196.69,196.69,0,0,1,67.23-13.1c15.69-.39,32.8,2.37,46.67,5.1.26-.41.66-1.06,1-1.66A223.41,223.41,0,0,1,233.81,150.47Z" transform="translate(-5.15 -14.24)"/><path class="cls-1" d="M45.65,108l-8,.83-.51-4.94a2.33,2.33,0,0,1,2.22-2.87,2.48,2.48,0,0,1,1.76.45,2.52,2.52,0,0,1,1,1.88l.34,3.28,3-.32Zm-6.94-1,2.45-.25-.28-2.71a1.85,1.85,0,0,0-.36-1.06,1.15,1.15,0,0,0-1-.28c-.82.08-1.19.58-1.09,1.48Z" transform="translate(-5.15 -14.24)"/><path class="cls-1" d="M41.32,97.32l-4.59-.2.07-1.7,4.55.21A3.52,3.52,0,0,0,43,95.41a2.15,2.15,0,0,0,.9-1.92,2.11,2.11,0,0,0-.73-2,3.27,3.27,0,0,0-1.64-.37L37,90.92l.08-1.69,4.59.21a4.3,4.3,0,0,1,2.32.61c.87.63,1.27,1.8,1.19,3.5s-.57,2.81-1.5,3.37A4.34,4.34,0,0,1,41.32,97.32Z" transform="translate(-5.15 -14.24)"/><path class="cls-1" d="M45.58,86.12,37.67,84.6,39,77.72l1.24.24-1,5.21,2,.39,1-5,1.25.23-1,5,2.19.43,1-5.3,1.24.24Z" transform="translate(-5.15 -14.24)"/><path class="cls-1" d="M47.74,76.08l-7.61-2.64,1.66-4.82c.6-1.72,1.58-2.33,3-1.86a2.11,2.11,0,0,1,1.08.78,1.82,1.82,0,0,1,.32,1.12h0a1.28,1.28,0,0,1,1-.65,3.48,3.48,0,0,1,1.44.26,3.08,3.08,0,0,0,1.74.24l-.6,1.73A2.61,2.61,0,0,1,48.54,70a3.06,3.06,0,0,0-1.41-.23,1.2,1.2,0,0,0-.9.91l-.94,2.72,3,1ZM44.09,73l1-2.76a1.82,1.82,0,0,0,.1-1.12,1.1,1.1,0,0,0-.75-.64c-.73-.25-1.26.08-1.57,1l-1,2.76Z" transform="translate(-5.15 -14.24)"/><path class="cls-1" d="M52.65,63.72l-6.06-3.08-1.37,2.69-1.13-.57,3.52-6.9,1.13.57-1.38,2.7,6.06,3.08Z" transform="translate(-5.15 -14.24)"/><path class="cls-1" d="M58.86,53.77A4.86,4.86,0,0,1,55.71,56a4.6,4.6,0,0,1-4.86-3.45,4.83,4.83,0,0,1,1.07-3.71,4.86,4.86,0,0,1,3.15-2.24,4.6,4.6,0,0,1,4.86,3.45A4.83,4.83,0,0,1,58.86,53.77Zm-1-.73a2.89,2.89,0,0,0,.59-2.28,2.93,2.93,0,0,0-1.31-1.88,3,3,0,0,0-2.23-.61,3.34,3.34,0,0,0-2.53,3.57,3,3,0,0,0,1.32,1.9,2.94,2.94,0,0,0,2.21.61A2.89,2.89,0,0,0,57.83,53Z" transform="translate(-5.15 -14.24)"/><path class="cls-1" d="M72.06,39.11l-4.77-6.49L70.79,30A3.83,3.83,0,0,1,74,29.13,4.61,4.61,0,0,1,76.4,31a4.52,4.52,0,0,1,1,2.56,3.22,3.22,0,0,1-1.48,2.72ZM69.4,32.63l3.28,4.46,1.92-1.41q2-1.49.4-3.71a2.7,2.7,0,0,0-2.17-1.35,2.88,2.88,0,0,0-1.58.65Z" transform="translate(-5.15 -14.24)"/><path class="cls-1" d="M81.54,32.53l-3.77-7.12L84,22.13l.59,1.12-4.69,2.48,1,1.8,4.5-2.38.59,1.12-4.5,2.38,1,2,4.77-2.52.59,1.12Z" transform="translate(-5.15 -14.24)"/><path class="cls-1" d="M100.62,18.63a2.11,2.11,0,0,1,.66-2.08,4.67,4.67,0,0,1,2.36-1.05q3.64-.69,4.36,1.77l-1.8.35a1.23,1.23,0,0,0-.66-.77,2.53,2.53,0,0,0-1.58-.12c-1.23.24-1.77.72-1.63,1.44.09.49.67.72,1.72.68,1.75-.06,2.73-.08,2.93-.05a2,2,0,0,1,1.91,1.69,2.22,2.22,0,0,1-.87,2.3,5.61,5.61,0,0,1-2.43,1c-2.66.51-4.17-.16-4.55-2l1.79-.35c.25,1,1.1,1.39,2.57,1.1a3,3,0,0,0,1.31-.51,1,1,0,0,0,.42-1c-.1-.53-.67-.78-1.71-.77-1.88,0-2.85,0-2.92,0A2,2,0,0,1,100.62,18.63Z" transform="translate(-5.15 -14.24)"/><path class="cls-1" d="M111.37,22.56l3.2-8.23,2-.09,4,7.88-1.89.09-.94-1.95-3.79.17-.74,2Zm3-3.41,2.78-.13-1.54-3.33Z" transform="translate(-5.15 -14.24)"/><path class="cls-1" d="M123.19,22.29l.72-8,1.69.16-.6,6.7,4.88.44-.12,1.33Z" transform="translate(-5.15 -14.24)"/><path class="cls-1" d="M131.68,23.13l5.31-7,2,.45,1.69,8.67-1.84-.43-.38-2.14-3.69-.85-1.27,1.76Zm3.83-2.47,2.7.63-.58-3.62Z" transform="translate(-5.15 -14.24)"/><path class="cls-1" d="M145.17,26.84,144.69,18l1.77.68.16,7,4.7-5.12,1.71.65-6.18,6.27Z" transform="translate(-5.15 -14.24)"/><path class="cls-1" d="M152.45,29.89l3.88-7.07,6.13,3.38-.61,1.1-4.65-2.55-1,1.78L160.69,29l-.61,1.11-4.46-2.45-1.08,2,4.73,2.6-.61,1.11Z" transform="translate(-5.15 -14.24)"/><path class="cls-1" d="M161.35,35l4.84-6.44,4.08,3.07q2.17,1.63.86,3.38a2,2,0,0,1-1.08.79,1.85,1.85,0,0,1-1.16,0v0A1.3,1.3,0,0,1,169.2,37a3.73,3.73,0,0,1-.69,1.29,3.11,3.11,0,0,0-.77,1.58l-1.46-1.1a2.65,2.65,0,0,1,.57-1.09,3.06,3.06,0,0,0,.66-1.27,1.2,1.2,0,0,0-.6-1.14l-2.3-1.74-1.91,2.55Zm4-2.54,2.34,1.76a1.85,1.85,0,0,0,1,.45,1.1,1.1,0,0,0,.84-.53c.46-.62.31-1.21-.46-1.79l-2.33-1.76Z" transform="translate(-5.15 -14.24)"/><path class="cls-1" d="M170.05,41.92l5.75-5.65,3.58,3.64q1.91,2,.34,3.48a2.1,2.1,0,0,1-1.18.62,1.91,1.91,0,0,1-1.14-.21l0,0a1.25,1.25,0,0,1,.14,1.19,3.56,3.56,0,0,1-.87,1.17,3,3,0,0,0-1,1.45l-1.28-1.3a2.63,2.63,0,0,1,.72-1,2.91,2.91,0,0,0,.84-1.16,1.22,1.22,0,0,0-.42-1.22l-2-2.05-2.28,2.23ZM174.41,40l2.05,2.09a1.77,1.77,0,0,0,.95.59,1.07,1.07,0,0,0,.91-.39c.55-.54.49-1.16-.19-1.85l-2-2.08Z" transform="translate(-5.15 -14.24)"/><path class="cls-1" d="M179.17,52.15l2.48-1.81,1.95-5.79,1.22,1.67-1.54,4,4.25-.26,1.22,1.67-6.1.1-2.48,1.81Z" transform="translate(-5.15 -14.24)"/><path class="cls-1" d="M188.9,69.39l7.65-2.53,1.56,4.72a2.31,2.31,0,0,1-1.55,3.27,2.43,2.43,0,0,1-1.82,0,2.54,2.54,0,0,1-1.36-1.63l-1-3.13-2.92,1Zm7-.52-2.34.77.85,2.58a1.94,1.94,0,0,0,.58,1,1.3,1.3,0,0,0,1.8-1.62Z" transform="translate(-5.15 -14.24)"/><path class="cls-1" d="M192.08,79.63,200,78.11,201.31,85l-1.24.24-1-5.22-2,.39.95,5-1.24.23-1-5-2.19.42,1,5.3-1.24.24Z" transform="translate(-5.15 -14.24)"/><path class="cls-1" d="M193.79,89.76l8.05-.36.23,5.1c.08,1.81-.61,2.75-2.07,2.81a2,2,0,0,1-1.29-.32,1.82,1.82,0,0,1-.71-.92h0a1.29,1.29,0,0,1-.69,1,3.82,3.82,0,0,1-1.44.29,3.18,3.18,0,0,0-1.71.41l-.08-1.82a2.72,2.72,0,0,1,1.21-.26,3.06,3.06,0,0,0,1.4-.3,1.21,1.21,0,0,0,.5-1.19L197,91.31l-3.18.14Zm4.51,1.49.13,2.92a1.87,1.87,0,0,0,.32,1.08,1.07,1.07,0,0,0,.93.31c.78,0,1.14-.53,1.1-1.49l-.13-2.92Z" transform="translate(-5.15 -14.24)"/><path class="cls-1" d="M197.47,101.15l4.57.48-.18,1.69-4.52-.48a3.36,3.36,0,0,0-1.68.11,2.09,2.09,0,0,0-1,1.86,2.14,2.14,0,0,0,.6,2,3.44,3.44,0,0,0,1.62.46l4.52.49-.18,1.68-4.57-.49a4.36,4.36,0,0,1-2.28-.75c-.82-.69-1.15-1.88-1-3.57s.75-2.77,1.7-3.27A4.4,4.4,0,0,1,197.47,101.15Zm4.76,3.53,1.48,1.16-.2,1.91L202.08,106Z" transform="translate(-5.15 -14.24)"/><path class="cls-4" d="M145.57,134.09c-34.55,0-56.28,6.25-75.33,13.63a71,71,0,0,0,11.43,9c27.66-14.64,48.89-17.21,70.19-17.77A141.36,141.36,0,0,1,175,140.44c.91-1.17,1.8-2.36,2.64-3.58A204.28,204.28,0,0,0,145.57,134.09Z" transform="translate(-5.15 -14.24)"/><path class="cls-5" d="M154.85,142.18a140.81,140.81,0,0,0-66.07,18.48,70.67,70.67,0,0,0,84.41-18A158.94,158.94,0,0,0,154.85,142.18Z" transform="translate(-5.15 -14.24)"/></svg>